<svg xmlns="http://www.w3.org/2000/svg" width="100" height="100"><g transform="translate(-123.624 -950.688)"><path fill="#3b3c3d" d="m 178.95837,959.17418 c -0.0369,0.0109 -0.0794,0.022 -0.12441,0.0412 -0.29087,0.12783 -0.67575,0.21003 -1.28568,0.27263 -0.31639,0.0321 -1.43769,0.93791 -2.36751,1.91453 -0.32724,0.34372 -0.72106,0.62911 -0.87839,0.6331 -0.16873,0.004 -0.43168,0.33427 -0.63943,0.8071 -0.19369,0.44076 -0.46224,0.84781 -0.5988,0.90419 -0.13657,0.0565 -0.29903,0.27498 -0.35859,0.48366 -0.0595,0.20858 -0.25225,0.57159 -0.42673,0.8071 -0.17449,0.2355 -0.26833,0.56349 -0.21051,0.73078 0.0639,0.18504 -0.0234,0.39872 -0.22068,0.54548 -0.51094,0.38019 -3.26652,5.07547 -4.69467,7.99487 -0.8839,1.80692 -1.03847,2.06313 -2.49594,4.15941 -0.49162,0.70711 -1.41231,2.41903 -2.04681,3.80439 -1.13665,2.48156 -1.99218,4.23504 -3.16748,6.49431 -0.32893,0.63236 -0.80452,1.54763 -1.05552,2.03396 -0.25099,0.48632 -0.58724,1.12317 -0.74943,1.41528 -0.1622,0.29201 -0.51838,0.96867 -0.79083,1.50356 -0.70814,1.39013 -2.87802,5.3637 -3.04357,5.57497 -0.12719,0.16228 -1.25747,2.3909 -2.04127,4.0224 -0.17507,0.3645 -0.38804,0.6644 -0.47394,0.6665 -0.0859,0 -0.15533,0.1117 -0.15197,0.2439 0.003,0.1321 -0.12129,0.3513 -0.27671,0.487 -0.1554,0.1356 -0.3816,0.5022 -0.50289,0.8145 -0.12129,0.3122 -0.57537,1.1484 -1.0109,1.8582 -1.18136,1.9255 -1.39128,2.3469 -6.1225,12.3344 -0.62136,1.3117 -1.28859,2.8601 -1.48337,3.4409 l -0.35496,1.0562 -0.7628,0.03 c -0.42013,0.011 -0.86942,0.093 -0.99902,0.178 -0.12962,0.084 -0.4769,0.1911 -0.77402,0.2324 -0.29709,0.042 -0.66004,0.125 -0.80239,0.1895 -0.14234,0.065 -0.52877,0.1592 -0.85647,0.2072 -0.32769,0.048 -1.37977,0.3705 -2.33787,0.7193 -0.95811,0.3487 -2.11474,0.701 -2.57631,0.7798 -0.46161,0.079 -0.88131,0.251 -0.92836,0.3836 -0.0471,0.1325 -0.14393,0.2024 -0.2196,0.1583 -0.0756,-0.044 -0.41011,0.1182 -0.74358,0.357 -0.33348,0.2389 -0.65109,0.3971 -0.70013,0.3505 -0.049,-0.047 -0.52058,0.2037 -1.04928,0.5611 -0.52871,0.3575 -1.03463,0.6535 -1.12869,0.6559 -0.0941,0 -0.17264,0.074 -0.17054,0.1571 0.002,0.083 -0.1681,0.38 -0.37597,0.6585 -1.17194,1.5704 -1.24879,4.2645 -0.21123,7.1447 1.30285,3.6167 2.54761,4.3259 7.64164,4.3165 1.2228,0 2.22907,0.072 2.36617,0.1799 0.16726,0.1318 0.49226,0.1337 1.10169,-10e-4 1.05622,-0.2332 3.62412,-0.1371 5.04431,0.1883 0.57465,0.1317 1.48303,0.2513 2.0194,0.2704 1.28409,0.045 9.67561,-0.1707 10.56831,-0.2784 0.38285,-0.044 1.93183,-0.1291 3.44224,-0.1855 2.10981,-0.078 2.81498,-0.048 3.04119,0.1301 0.2908,0.2292 1.11534,0.3213 1.11034,0.1245 -0.003,-0.1237 -0.12707,-0.1093 3.83107,-0.3373 9.96679,-0.574 15.05631,-0.6142 17.71132,-0.1335 1.36036,0.2463 2.31319,0.3312 4.89764,0.4265 0.95979,0.036 1.90382,0.097 2.09785,0.1376 0.19403,0.04 1.40991,0.023 2.7043,-0.036 5.48603,-0.251 13.23495,-0.2851 14.57153,-0.065 0.52794,0.087 3.83547,0.1585 5.35879,0.1148 0.44833,-0.011 1.03027,0.082 1.298,0.2125 0.26771,0.1303 0.54483,0.1991 0.61474,0.1534 0.1894,-0.1237 1.84353,-0.3402 2.98431,-0.3921 0.55128,-0.025 1.0008,-0.1064 0.99902,-0.1781 -0.002,-0.072 0.11846,-0.1339 0.2692,-0.1377 0.52751,-0.013 0.82591,-0.5515 0.80311,-1.4493 -0.0121,-0.4751 -0.10024,-0.9142 -0.19933,-0.9768 -0.099,-0.062 -0.22805,-0.2395 -0.28809,-0.3908 -0.13117,-0.3307 -1.35095,-0.9114 -1.76113,-0.8388 -0.2272,0.04 -0.32148,-0.1308 -0.42341,-0.7801 -0.0721,-0.459 -0.20822,-1.0123 -0.30395,-1.2304 -0.0958,-0.218 -0.17676,-0.5175 -0.1804,-0.6608 -0.004,-0.1432 -0.16361,-0.4666 -0.35648,-0.7218 -0.1929,-0.2552 -0.49022,-0.8682 -0.66184,-1.363 -0.20163,-0.5814 -0.47907,-1.0029 -0.7829,-1.1909 -0.54355,-0.3364 -1.05667,-0.9013 -1.50938,-1.6633 -0.37123,-0.6249 -2.74761,-2.8095 -3.84201,-3.5294 -0.41489,-0.2729 -0.75599,-0.5605 -0.75802,-0.6407 -0.003,-0.1339 -0.53288,-0.3461 -0.98085,-0.395 -0.32115,-0.035 -1.48964,-0.6712 -1.49324,-0.813 -0.002,-0.074 -0.11306,-0.1334 -0.24873,-0.13 -0.13565,0 -0.53924,-0.2671 -0.89876,-0.5989 -0.35954,-0.3318 -0.82794,-0.6739 -1.03932,-0.7644 -1.37926,-0.591 -1.74212,-0.907 -2.18126,-1.919 -0.24402,-0.5622 -0.50232,-1.2603 -0.57389,-1.5507 -0.0716,-0.2905 -0.19664,-0.6496 -0.28197,-0.7946 -0.22844,-0.3882 -2.72883,-7.4251 -2.88999,-8.1349 -0.0758,-0.3341 -0.34361,-1.1629 -0.59757,-1.8392 -0.42783,-1.1394 -1.27427,-3.9059 -1.50467,-4.914 -0.0545,-0.2387 -0.17245,-0.6284 -0.26197,-0.8661 -0.16831,-0.4469 -0.69245,-2.3571 -0.85371,-3.1198 -0.0505,-0.23874 -0.23309,-0.9017 -0.40828,-1.47317 -0.81555,-2.66035 -1.62598,-5.69365 -1.92256,-7.19421 -0.73978,-3.74292 -2.10139,-8.8488 -2.81532,-10.56382 -0.21463,-0.51552 -0.46493,-1.25531 -0.55988,-1.64382 -0.095,-0.38851 -0.3583,-1.32823 -0.58214,-2.09049 -0.22382,-0.76227 -0.52474,-1.85408 -0.67247,-2.42631 -0.23141,-0.89632 -0.87818,-2.64696 -2.13784,-5.79239 -0.56866,-1.42012 -1.78261,-3.83468 -2.33795,-4.65294 -1.6825,-2.47919 -2.78568,-3.60394 -4.43979,-4.51774 -0.41161,-0.22732 -0.88164,-0.40845 -1.04109,-0.4044 -0.15942,0.004 -0.29103,-0.0776 -0.29372,-0.1835 -0.002,-0.086 -0.0716,-0.12552 -0.18263,-0.1044 z"/><path fill="#f29f4a" d="m 178.95637,962.96485 c 0.54897,-0.0139 2.52832,2.26304 3.59015,4.13568 0.58207,1.02656 2.44298,5.3225 2.60135,6.00429 0.0333,0.14311 0.10131,0.37695 0.15501,0.51964 0.16214,0.43022 0.71558,2.19074 0.71793,2.28331 0.002,0.086 -1.00324,0.15162 -1.08899,0.0717 -0.0246,-0.0234 -1.02347,-0.073 -2.22251,-0.10721 -1.19905,-0.0336 -2.23683,-0.0926 -2.30497,-0.13232 -0.0682,-0.0403 -1.21187,-0.086 -2.53864,-0.0992 -1.3268,-0.0133 -2.88308,-0.0457 -3.45979,-0.0758 -0.57672,-0.0304 -1.73879,-0.0499 -2.58631,-0.0434 -1.11471,0.008 -1.57204,-0.0561 -1.64194,-0.22558 -0.0531,-0.1286 0.51465,-1.30359 1.25886,-2.61721 0.74422,-1.31352 1.35089,-2.42958 1.34967,-2.47766 -0.001,-0.048 0.31898,-0.66742 0.71226,-1.37613 0.39327,-0.70871 0.84217,-1.56709 0.99329,-1.90683 0.15113,-0.33985 0.44618,-0.79259 0.66157,-1.00942 0.80929,-0.81501 1.16488,-1.13134 1.27471,-1.13413 0.0623,-0.002 0.35953,-0.26442 0.66147,-0.58399 0.57745,-0.61135 1.49779,-1.21611 1.86688,-1.22549 z"/><path fill="#f8f6de" d="m 168.95265,977.743 c 0.0778,-0.002 0.15535,0.0761 0.2673,0.21678 0.20563,0.25826 0.2714,0.2785 0.27474,0.0801 0.004,-0.21606 0.0481,-0.20869 0.24079,0.0319 0.12846,0.16049 0.50332,0.32603 0.83299,0.37157 0.32968,0.0456 0.79371,0.11319 1.03458,0.14828 0.24086,0.0349 1.14585,0.099 2.01064,0.1398 0.86478,0.0411 1.96666,0.13331 2.44875,0.21049 0.48208,0.0768 1.42659,0.16474 2.09923,0.19217 0.67262,0.0269 1.75334,0.12362 2.3997,0.21174 0.64635,0.088 1.24186,0.11661 1.32151,0.0645 0.0797,-0.052 0.45477,-0.0356 0.83545,0.0388 0.38069,0.0744 1.25501,0.16099 1.94103,0.19068 2.32586,0.10059 2.44101,0.14688 2.72666,1.05972 0.13883,0.44362 0.23251,0.87188 0.20968,0.95458 -0.0228,0.0826 0.0394,0.24248 0.13436,0.3511 0.33658,0.38528 2.40505,8.32463 2.24196,8.60406 -0.0423,0.0731 -0.60596,0.15003 -1.25546,0.17373 -0.64942,0.0265 -1.84872,0.094 -2.6631,0.15466 -0.81436,0.0617 -2.11044,0.0536 -2.8798,-0.003 -1.93543,-0.15432 -8.70991,-0.12721 -15.3135,0.0562 -3.84881,0.10775 -5.53884,0.0967 -5.54216,-0.0338 -0.004,-0.16294 0.97312,-2.29564 2.79059,-6.08661 0.27954,-0.58308 0.80334,-1.74856 1.1669,-2.58756 0.36355,-0.8391 0.92389,-1.88506 1.24439,-2.32784 0.32049,-0.44268 0.69975,-1.028 0.83956,-1.30294 0.32902,-0.64716 0.46363,-0.90176 0.5932,-0.90955 z"/><path fill="#f29f4a" d="m 160.82664,994.51321 c 0.25665,-0.007 0.6421,0.005 1.21699,0.0291 0.92328,0.0386 3.91377,0.0412 6.64876,0.0111 2.73496,-0.0304 5.60189,-0.0193 6.37077,0.0183 0.76888,0.0375 2.77191,0.0497 4.45122,0.0287 1.67932,-0.0206 3.14813,0.0181 3.26371,0.0863 0.27664,0.16273 2.64409,0.26765 4.07327,0.18014 2.57184,-0.15735 2.89636,-0.16459 3.35837,-0.0523 0.28897,0.0697 0.48117,0.0478 0.47853,-0.0562 -0.0108,-0.42686 0.3249,0.0778 0.44229,0.66499 0.0717,0.35919 0.37401,1.43046 0.67138,2.38282 0.46013,1.47372 1.19044,4.22014 1.19968,4.50174 0.002,0.048 0.11553,0.4553 0.25218,0.9099 1.04969,3.4923 1.25765,4.2562 1.16856,4.35 -0.0819,0.086 -5.9604,0.3358 -6.0747,0.2578 -0.0181,-0.013 -1.13353,-0.05 -2.47827,-0.084 -2.51816,-0.063 -6.12868,0 -14.30466,0.2652 -2.58965,0.083 -6.59348,0.1465 -8.89745,0.139 -2.30397,-0.01 -5.38598,0.017 -6.8489,0.054 -1.46292,0.037 -2.66148,0 -2.66359,-0.08 -0.003,-0.1296 0.61032,-1.296 2.04474,-3.8861 0.18872,-0.3408 0.77382,-1.4359 1.30172,-2.4329 0.5279,-0.9969 1.11717,-2.04386 1.3098,-2.32941 0.19262,-0.28559 0.57472,-0.98211 0.84967,-1.54868 0.27497,-0.56656 0.72907,-1.43107 1.00392,-1.918 0.27486,-0.48694 0.54117,-1.03098 0.5965,-1.20964 0.0574,-0.18531 0.13794,-0.26468 0.56551,-0.28165 z"/><path fill="#f8f6de" d="m 151.23273,1011.4681 0.70057,0.097 c 0.38532,0.053 2.42807,0.083 4.53955,0.07 2.11145,-0.014 4.03649,0.02 4.27777,0.071 0.24129,0.052 2.08753,0.075 4.1028,0.054 2.01527,-0.021 4.68584,-0.011 5.9346,0.024 1.24875,0.034 2.62307,0.03 3.05409,-0.01 1.76919,-0.1503 10.16793,-0.3172 12.0364,-0.2406 1.10503,0.045 2.67899,0.104 3.49401,0.1349 0.85201,0.032 1.53704,0.1422 1.61551,0.2589 0.0751,0.1117 0.13779,0.1252 0.13711,0.029 -7.1e-4,-0.1065 0.48851,-0.1586 1.26188,-0.1356 0.69653,0.02 1.79601,0.021 2.44348,0 0.84982,-0.022 1.17885,0.03 1.183,0.1935 0.003,0.1246 0.10238,0.4471 0.21993,0.7143 0.30615,0.6962 0.37761,0.9489 0.41291,1.4403 0.0172,0.2396 0.0892,0.4734 0.15501,0.5198 0.0658,0.046 0.416,0.9405 0.78131,1.9872 0.36529,1.0466 1.05302,2.9141 1.5289,4.1498 0.47587,1.2358 0.97704,2.5582 1.11635,2.9387 0.31577,0.8624 1.27916,3.0546 1.96835,4.4878 0.33347,0.6934 0.90722,2.2697 0.94397,2.5939 0.0104,0.096 0.099,0.2616 0.19488,0.3714 0.13242,0.1516 -0.88056,0.2193 -4.20883,0.2814 -2.41104,0.045 -4.411,0.062 -4.43865,0.037 -0.0863,-0.08 -4.79805,-0.073 -11.87857,0.013 -3.74251,0.045 -7.78665,0.067 -8.98702,0.048 -1.20036,-0.018 -3.87112,-0.037 -5.93501,-0.04 -2.0639,0 -4.46076,-0.061 -5.32635,-0.1265 -3.0696,-0.2329 -5.48834,-0.3669 -7.51515,-0.4091 -0.96041,-0.02 -3.00408,-0.086 -4.54147,-0.1465 -1.53738,-0.06 -3.87568,-0.1302 -5.19623,-0.1571 -1.32055,-0.026 -2.40238,-0.1022 -2.40404,-0.1679 -0.002,-0.066 0.17583,-0.6917 0.39543,-1.3954 0.37864,-1.2135 0.6377,-1.8661 1.72243,-4.3361 0.2558,-0.5824 0.78154,-1.7739 1.16537,-2.6476 1.25927,-2.8662 2.3334,-5.1129 2.57897,-5.3995 0.13274,-0.1549 0.23666,-0.346 0.23476,-0.4205 -0.002,-0.074 0.49948,-1.207 1.11419,-2.5153 l 1.11779,-2.3736 z"/><path fill="#d97b16" d="M139.84249 1027.4868c.16588 0-.55884 2.5827-.82515 2.9443-.1735.2357-.90159.2551-2.31074.07-.48158-.064-1.56258-.1074-2.40238-.1025-1.05489.01-1.52855-.056-1.53223-.2011-.008-.3195 6.16859-2.6874 7.0705-2.7103zM206.29931 1027.8934c.10157 0 1.14383.6624 1.30834.8339.0493.052.24721.1134.43991.1415.36451.054 1.45984.845 2.37796 1.7177.29296.2784.6184.5023.72171.4997.1033 0 .18732.074.18975.1698.004.1734-.22044.2429-.36255.1128-.11459-.1049-1.87043-.2165-3.08102-.1944-1.07502.017-1.08535.017-.93738-.4017.093-.2643.0801-.6642-.0376-1.0517-.10403-.3427-.14714-.6977-.0911-.7939.0561-.097.0328-.1754-.0535-.1732-.0862 0-.25001-.19-.36535-.427-.11543-.2371-.16427-.4321-.10915-.4335z"/><path fill="#f29f4a" d="m 133.29167,1032.1909 c 0.22197,0 0.41149,0.075 0.3601,0.22 -0.0455,0.128 0.0659,0.3262 0.25103,0.4353 0.18518,0.1093 0.33616,0.1361 0.33429,0.063 -0.002,-0.074 0.15588,-0.2403 0.35059,-0.369 0.39098,-0.2581 1.03237,-0.1533 1.04058,0.17 0.003,0.1221 0.30772,0.2108 0.74723,0.2156 1.23953,0.014 1.72111,0.1042 1.8964,0.3663 0.14005,0.2095 0.16651,0.2031 0.1624,-0.048 -0.003,-0.2028 0.0825,-0.2655 0.27313,-0.1978 0.15507,0.055 0.35125,-0.01 0.43257,-0.1473 0.11476,-0.1919 0.15107,-0.1974 0.15767,-0.02 0.004,0.1255 0.083,0.1771 0.17746,0.1154 0.0953,-0.062 0.17992,0.067 0.18734,0.2898 0.009,0.2753 0.053,0.332 0.14629,0.1763 0.1538,-0.2566 2.23643,-0.319 2.39794,-0.072 0.0525,0.081 0.21413,0.1418 0.35803,0.1381 0.14389,0 0.218,-0.071 0.16523,-0.1514 -0.0528,-0.081 0.13802,-0.1446 0.42181,-0.1417 0.28379,0 0.55619,0.1005 0.60551,0.2192 0.11459,0.2759 0.62322,0.2724 0.61619,0 -0.004,-0.1629 0.0456,-0.1641 0.21257,-0.01 0.27745,0.2638 1.0152,0.2445 1.00834,-0.026 -0.003,-0.1174 0.0928,-0.084 0.2201,0.076 0.18762,0.236 0.55981,0.2702 1.00594,0.094 0.18181,-0.072 1.14293,0.016 1.31201,0.1194 0.29047,0.178 2.01014,0.1203 2.00539,-0.067 -0.003,-0.1116 0.0749,-0.1117 0.21827,0 0.1224,0.095 0.96939,0.2017 1.88217,0.2358 0.91278,0.034 1.97443,0.088 2.3592,0.12 0.38478,0.032 1.28953,0.094 2.01063,0.1399 0.72109,0.046 1.58647,0.1029 1.92302,0.1256 0.33653,0.023 1.24099,0.073 2.00994,0.1126 0.76895,0.04 1.63437,0.1 1.92315,0.1311 1.75615,0.1915 2.71268,0.1828 2.71003,-0.025 -0.002,-0.1576 0.0339,-0.1617 0.1304,-0.019 0.0846,0.1246 1.05516,0.2048 2.66188,0.227 1.39234,0.019 3.12129,0.062 3.84201,0.093 1.16144,0.05 5.04294,0.1699 5.50202,0.1711 0.096,0 0.62113,-0.062 1.16363,-0.1386 0.85474,-0.1198 0.99668,-0.097 1.07329,0.1691 0.0732,0.2545 0.088,0.2601 0.0988,0.024 0.0105,-0.2285 0.2029,-0.2848 0.97445,-0.2866 0.52788,0 0.96144,0.062 0.96344,0.1391 0.002,0.078 0.0798,0.091 0.17525,0.029 0.0954,-0.062 0.85965,-0.1222 1.69835,-0.1302 0.8387,-0.01 1.86015,-0.03 2.26767,-0.048 0.43684,-0.023 0.74267,0.036 0.74557,0.1501 0.003,0.1106 0.0966,0.1356 0.21954,0.054 0.41737,-0.2754 0.91075,-0.2653 1.13508,0.025 0.20502,0.2659 0.22501,0.2694 0.21843,0.01 -0.006,-0.2271 0.12876,-0.2759 0.64852,-0.2346 0.3607,0.029 0.65602,0.06 0.65627,0.07 0.001,0.057 1.81822,0.1549 2.18464,0.119 0.23939,-0.023 0.55319,-0.037 0.69738,-0.029 1.57563,0.092 2.85793,0.1201 5.67505,0.1123 1.82371,-0.01 4.37594,-0.015 5.67173,-0.019 1.2958,0 2.43944,-0.062 2.53842,-0.1245 0.0989,-0.066 0.27452,-0.063 0.39285,0.01 0.11833,0.069 0.891,0.083 1.7187,0.027 0.82772,-0.056 1.63402,-0.052 1.78915,0.01 0.15514,0.061 0.71293,0.1105 1.24101,0.1157 0.52809,0.01 1.23662,0.072 1.57445,0.1455 0.33783,0.073 0.81076,0.1402 1.05107,0.1532 0.2403,0.013 0.56559,0.034 0.72099,0.042 0.16544,0.01 0.44463,0.3822 0.67745,0.9045 l 0.39907,0.8953 -0.37129,0.413 c -0.3553,0.398 -0.46724,0.4152 -3.02039,0.4749 -1.45972,0.037 -2.68497,0.035 -2.72145,0 -0.0724,-0.063 -2.20296,-0.1698 -5.48285,-0.2753 -1.78451,-0.057 -8.06866,0.1029 -10.02896,0.2547 -0.33529,0.026 -1.39599,0.01 -2.35698,-0.033 -0.96096,-0.042 -2.41519,-0.091 -3.23169,-0.1143 -1.97873,-0.055 -5.50906,-0.2873 -6.38102,-0.4215 -0.66825,-0.1028 -5.30446,0 -14.49361,0.3411 -2.31036,0.085 -4.30341,0.098 -4.42803,0.025 -0.29517,-0.1721 -6.0306,0.01 -7.53696,0.2354 -1.55761,0.2367 -11.3782,0.368 -12.2238,0.1632 -0.36773,-0.089 -0.74035,-0.1141 -0.83041,-0.055 -0.09,0.059 -0.49996,0.027 -0.91272,-0.075 -0.41275,-0.1016 -1.45865,-0.1812 -2.32242,-0.1756 -0.86378,0.01 -1.7344,-0.075 -1.9353,-0.18 -0.22852,-0.1191 -0.58835,-0.135 -0.96094,-0.041 -0.55961,0.1412 -1.29288,0.1511 -4.26368,0.054 -1.99037,-0.065 -2.26882,-0.1658 -2.62496,-0.9206 -0.35817,-0.759 -0.68978,-2.3597 -0.5719,-2.7615 0.25182,-0.8584 0.58284,-1.3889 0.92751,-1.4908 0.58054,-0.1713 0.85942,-0.1529 0.74294,0.047 -0.093,0.1593 0.13836,0.2478 0.48463,0.1841 0.0717,-0.013 0.13228,0.055 0.13482,0.1547 0.003,0.1045 0.10707,0.083 0.24416,-0.05 0.13063,-0.1272 0.19334,-0.2984 0.13747,-0.3853 -0.0559,-0.087 0.0236,-0.1141 0.1785,-0.059 0.15493,0.055 0.3186,0 0.36255,-0.1128 0.0591,-0.1556 0.12434,-0.151 0.25142,0.021 0.12013,0.1625 0.20459,0.1734 0.28453,0.037 0.0843,-0.1444 0.34007,-0.2086 0.56201,-0.2053 z"/></g></svg>