<svg xmlns="http://www.w3.org/2000/svg" width="100" height="100"><g transform="matrix(.9689 0 0 .9689 108.23 -917.535)"><path fill="#3b3c3d" d="m -12.3125,10.40625 c -0.07593,-0.003 -0.162291,0.02625 -0.25,0.03125 -0.258245,0.0138 -0.836606,0.02795 -1.3125,0.03125 -1.52341,0.0107 -2.048642,0.0241 -2.5625,0.0625 -0.276377,0.021 -0.811498,0.02335 -1.1875,0.03125 -0.375989,0.008 -0.873731,0.0434 -1.125,0.0625 -0.251126,0.0181 -1.774753,-0.0057 -3.375,-0.0625 -2.50749,-0.0893 -3.939302,-0.10495 -4.875,-0.03125 -0.125635,0.01 -0.667666,0.02525 -1.21875,0.03125 -1.0375,0.0118 -1.667835,0.03655 -2.0625,0.09375 -0.382875,0.0554 -2.211376,0.12352 -3.75,0.125 -0.626026,7.4e-4 -1.790896,0.0259 -2.59375,0.0625 -0.802976,0.0371 -1.701932,0.08035 -2,0.09375 -0.29785,0.013 -0.563939,0.05745 -0.59375,0.09375 -0.02963,0.0367 -0.199805,0.0642 -0.375,0.0625 -0.583817,-0.005 -2.052187,0.0288 -2.46875,0.0625 -0.731772,0.0592 -1.986797,0.09165 -4,0.09375 -2.233438,0.003 -3.100825,-0.0084 -4.15625,0.03125 -0.601964,0.0228 -1.949143,0.05015 -3,0.03125 -1.838059,-0.0341 -2.886577,-0.0464 -3.46875,0 -0.150885,0.0124 -0.554758,0.0428 -0.90625,0.0625 -0.351349,0.0187 -0.885786,0.06555 -1.1875,0.09375 -0.301844,0.0289 -0.612528,0.03355 -0.6875,0.03125 -0.07496,-0.002 -0.523975,0.02525 -1,0.03125 -0.476125,0.006 -1.828036,-0.0099 -3,-0.03125 -1.172051,-0.0221 -2.157244,-0.04795 -2.1875,-0.03125 -0.02976,0.0167 -0.568017,0.02855 -1.21875,0.03125 -1.162794,0.004 -2.027708,0.05235 -2.75,0.09375 -0.200781,0.0113 -0.792566,0.02525 -1.34375,0.03125 -1.720164,0.0191 -3.957598,0.08913 -4.25,0.15625 -0.07584,0.0177 -0.830214,0.03925 -1.65625,0.03125 -0.826036,-0.008 -1.855221,-0.008 -2.28125,0 -0.426085,0.006 -1.424325,0.01393 -2.25,0 -1.861711,-0.0311 -3.821464,-0.04675 -4.78125,-0.03125 -1.290931,0.0208 -2.380908,0.0368 -2.5625,0.0625 -0.09769,0.0138 -0.549607,0.0541 -1,0.0625 -0.450493,0.008 -0.842902,0.01365 -0.875,0.03125 -0.05439,0.0307 -1.377215,0.0256 -4,0 -1.174827,-0.0112 -2.066318,0.03295 -3.09375,0.09375 -0.83096,0.0498 -2.92523,-0.06246 -4.375,-0.21875 -0.67307,-0.0704 -1.43521,-0.12994 -1.6875,-0.15625 -0.25221,-0.026 -0.524,-0.08855 -0.625,-0.125 -0.43173,-0.15805 -0.47155,0.05194 -0.71875,4.3125 -0.13239,2.2789 -0.15666,3.28108 -0.0937,4.15625 0.0455,0.63308 0.0789,1.57367 0.0625,2.09375 -0.0352,1.12874 0.0762,1.86828 0.40625,2.28125 0.25617,0.32066 0.62095,0.41255 0.71875,0.1875 0.0322,-0.0737 0.0927,-0.12777 0.15625,-0.125 0.0629,0.003 0.18448,-0.05226 0.25,-0.125 0.15111,-0.16668 0.56255,-0.15153 1.53125,0.0625 0.99365,0.22249 1.62533,0.27243 3.34375,0.34375 0.774764,0.0338 1.518516,0.07775 1.65625,0.09375 0.138168,0.006 0.529812,0.0041 0.84375,-0.03125 0.313882,-0.0364 0.786268,-0.1073 1.0625,-0.125 0.276246,-0.018 0.56333,-0.0462 0.625,-0.0625 0.158629,-0.0431 0.220218,0.16535 0.09375,0.28125 -0.05839,0.0535 -0.09118,0.12856 -0.09375,0.1875 -0.0026,0.059 -0.06419,0.27877 -0.15625,0.46875 -0.09136,0.1899 -0.204294,0.39431 -0.21875,0.46875 -0.06855,0.35555 -0.589934,2.41029 -0.6875,2.6875 -0.06058,0.17263 -0.158973,0.43852 -0.1875,0.5625 -0.02842,0.12388 -0.147369,0.41164 -0.28125,0.65625 -0.332458,0.60709 -0.643379,1.45478 -0.65625,1.75 -0.0059,0.13417 -0.102372,0.44538 -0.1875,0.6875 -0.08463,0.24224 -0.205216,0.85241 -0.28125,1.375 -0.09281,0.63646 -0.282786,1.4201 -0.59375,2.3125 -0.255158,0.73278 -0.554622,1.75248 -0.65625,2.28125 -0.102131,0.52886 -0.23463,1.02684 -0.28125,1.125 -0.08264,0.17356 -0.219034,0.63028 -0.25,0.8125 -0.06464,0.38075 -0.220719,1.48105 -0.25,1.71875 -0.0542,0.43966 -0.158251,0.91246 -0.4375,1.90625 -0.264444,0.94117 -0.40034,1.45685 -0.71875,3.25 -0.10607,0.59643 -0.22451,1.2895 -0.28125,1.5625 -0.10761,0.5168 -0.21377,1.1184 -0.3125,1.8125 -0.0318,0.224 -0.0927,0.63355 -0.15625,0.90625 -0.0639,0.2726 -0.18428,0.77105 -0.25,1.09375 -0.0651,0.3227 -0.13102,0.6884 -0.15625,0.8125 -0.051,0.2508 -0.32613,1.64985 -0.59375,3.03125 -0.0957,0.4966 -0.2476,1.23465 -0.34375,1.65625 -0.0964,0.4215 -0.2512,1.0388 -0.3125,1.375 -0.0617,0.3364 -0.13705,0.69625 -0.1875,0.78125 -0.0508,0.085 -0.12198,0.339 -0.15625,0.5625 -0.0338,0.2233 -0.16272,0.73575 -0.28125,1.15625 -0.11843,0.4206 -0.26956,1.0651 -0.34375,1.4375 -0.26797,1.3458 -0.2273,1.1493 -0.5,2.25 -0.0923,0.3716 -0.20942,0.87005 -0.25,1.09375 -0.0408,0.2235 -0.13394,0.6407 -0.21875,0.9375 -0.085,0.2968 -0.31766,1.21415 -0.53125,2.03125 -0.37382,1.4295 -0.69948,2.646 -0.9375,3.5 -0.17824,0.64 -0.43108,1.26965 -0.625,1.65625 -0.0986,0.196 -0.39045,0.9373 -0.65625,1.625 -0.26571,0.6877 -0.588,1.42385 -0.71875,1.65625 -0.13085,0.2325 -0.24648,0.51295 -0.25,0.59375 -0.004,0.081 -0.16025,0.38965 -0.34375,0.71875 l -0.3125,0.59375 0.125,0.46875 c 0.20047,0.6066 0.5283,0.97415 0.9375,1.03125 0.68457,0.096 1.8344,0.1075 2.625,0.0625 0.45183,-0.025 1.12401,-0.0545 1.5,-0.0625 0.37589,-0.01 1.09101,-0.07455 1.59375,-0.15625 0.50264,-0.082 0.96376,-0.12325 1.03125,-0.09375 0.0678,0.029 0.15968,0.035 0.21875,0 0.0595,-0.034 0.2415,-0.0565 0.40625,-0.0625 0.611,-0.023 0.926655,-0.38855 0.84375,-0.96875 -0.02839,-0.1985 0.06779,-0.48765 0.25,-0.90625 0.370412,-0.8532 0.432611,-1.0552 0.625,-1.875 0.09336,-0.3966 0.266267,-1.1302 0.40625,-1.625 0.139978,-0.4947 0.296679,-1.3137 0.34375,-1.8125 0.04677,-0.4987 0.119631,-1.0013 0.15625,-1.125 0.03742,-0.1235 0.111661,-0.58245 0.15625,-1.03125 0.04359,-0.4488 0.124212,-1.13335 0.1875,-1.53125 0.06339,-0.3979 0.140188,-1.03275 0.1875,-1.40625 0.0808,-0.6366 0.260816,-1.41855 0.375,-1.71875 0.03736,-0.099 0.077,-0.11715 0.125,-0.03125 0.101031,0.1806 1.480341,0.3914 2.53125,0.375 0.526252,-0.01 1.374073,-0.02925 1.875,-0.03125 1.139572,0 1.921877,-0.0145 2.21875,-0.0625 0.493035,-0.08 1.482856,-0.08825 3.0625,-0.03125 l 1.65625,0.0625 0.125,0.90625 c 0.06313,0.5035 0.138772,1.30335 0.1875,1.78125 0.04923,0.4779 0.141078,1.0102 0.1875,1.1875 0.04632,0.1773 0.134418,0.61585 0.1875,0.96875 0.142696,0.9491 0.154398,1.12415 0.25,1.40625 0.111556,0.3295 0.266629,1.51125 0.40625,3.34375 0.06125,0.7992 0.137528,1.508 0.1875,1.5625 0.04969,0.054 0.07569,0.35385 0.0625,0.65625 -0.01299,0.3025 0.02653,0.79335 0.0625,1.09375 0.03595,0.3005 0.0095,0.55635 -0.03125,0.59375 -0.123237,0.113 -0.04602,0.71265 0.09375,0.71875 0.06993,0 0.12696,0.04875 0.125,0.09375 -0.0077,0.1733 0.601466,0.3129 1.40625,0.3125 0.460334,0 0.899006,-0.0415 1,-0.0625 0.752973,-0.1552 1.985687,-0.3598 2.25,-0.375 0.661493,-0.038 1.274448,-0.0023 1.4375,0.09375 0.554434,0.3189 0.622203,0.3565 0.84375,0.25 0.277775,-0.1334 0.463306,-0.3126 0.46875,-0.4375 0.0023,-0.054 0.0438,-0.09575 0.09375,-0.09375 0.142165,0.01 0.113945,-0.54315 -0.03125,-0.71875 -0.07231,-0.086 -0.244731,-0.77745 -0.40625,-1.53125 -0.161523,-0.7538 -0.389985,-1.77635 -0.5,-2.28125 -0.109914,-0.5048 -0.230398,-1.0356 -0.25,-1.1875 -0.01941,-0.1517 -0.114475,-0.67585 -0.21875,-1.15625 -0.10438,-0.4803 -0.200201,-1.0115 -0.21875,-1.1875 -0.01835,-0.1761 -0.10482,-0.6957 -0.1875,-1.125 -0.08268,-0.4293 -0.173078,-0.8367 -0.1875,-0.9375 -0.08199,-0.5715 -0.571598,-3.21835 -0.65625,-3.53125 -0.05515,-0.2045 -0.02758,-0.2155 0.8125,-0.1875 0.925756,0.03 3.231537,0.1135 6.65625,0.1875 3.090585,0.068 5.560739,0.1405 8.5625,0.3125 2.264897,0.1297 2.871809,0.1741 3.84375,0.1875 0.96265,0.013 1.864389,0.09145 3.28125,0.28125 0.821593,0.1099 1.304108,0.1228 3.03125,0.125 1.436582,-4e-4 5.515428,0.0792 9.03125,0.1875 1.5504,0.048 2.917816,0.0845 3.0625,0.0625 0.259533,-0.039 0.264449,-0.04905 0.1875,0.28125 -0.0763,0.3266 -0.438642,1.2796 -1.0625,2.8125 -0.17028,0.4183 -0.371345,0.9788 -0.46875,1.25 -0.09691,0.2712 -0.386041,0.96565 -0.625,1.53125 -0.239058,0.5655 -0.525407,1.2663 -0.625,1.5625 -0.1,0.2962 -0.238826,0.6655 -0.3125,0.8125 -0.195045,0.3894 -0.355321,1.23055 -0.3125,1.59375 0.03424,0.2937 0.06701,0.3267 0.5,0.4375 0.254704,0.065 0.658761,0.1846 0.90625,0.25 0.247611,0.065 0.569933,0.12355 0.71875,0.15625 0.148825,0.033 0.534383,0.13325 0.84375,0.21875 0.309368,0.086 0.682472,0.18485 0.84375,0.21875 0.16107,0.034 0.665305,0.1498 1.09375,0.25 0.448068,0.1046 0.838368,0.1626 0.9375,0.125 0.09465,-0.036 0.284693,-0.07875 0.40625,-0.09375 0.121456,-0.015 0.314228,-0.0991 0.4375,-0.1875 0.123181,-0.089 0.324718,-0.19355 0.46875,-0.21875 0.203225,-0.035 0.314162,-0.14415 0.46875,-0.46875 0.212991,-0.4475 0.462524,-1.3347 0.40625,-1.4375 -0.01854,-0.034 0.01464,-0.2517 0.0625,-0.5 0.05086,-0.2483 0.140283,-0.7514 0.1875,-1.125 0.04731,-0.3735 0.158904,-0.95965 0.25,-1.28125 0.09109,-0.3216 0.21665,-0.8772 0.28125,-1.25 0.0643,-0.3729 0.159039,-0.9646 0.21875,-1.3125 0.1343,-0.7823 0.508954,-2.48535 0.65625,-2.96875 0.06067,-0.1977 0.171832,-0.6889 0.21875,-1.0625 0.04732,-0.3736 0.148819,-0.88385 0.21875,-1.15625 0.06993,-0.2724 0.102892,-0.55085 0.09375,-0.59375 -0.0091,-0.043 0.198984,-0.5159 0.46875,-1.0625 0.269771,-0.5468 0.551157,-1.18415 0.625,-1.40625 0.07375,-0.2222 0.213696,-0.6038 0.3125,-0.875 0.0989,-0.2711 0.235112,-0.8153 0.3125,-1.1875 0.07728,-0.3722 0.453514,-1.48275 0.8125,-2.46875 1.101096,-3.0249 1.407556,-3.9313 1.4375,-4.0625 0.05448,-0.2394 0.377456,-1.04415 0.53125,-1.34375 0.173489,-0.3381 0.43262,-1.0585 0.875,-2.4375 0.165518,-0.5157 0.351921,-1.03045 0.40625,-1.15625 0.05453,-0.1257 0.15763,-0.53475 0.25,-0.90625 0.492652,-1.981 0.648081,-2.57355 0.71875,-2.65625 0.04323,-0.0502 0.160615,-0.38035 0.25,-0.75 0.08919,-0.36977 0.248389,-1.00972 0.34375,-1.40625 0.09536,-0.39647 0.255915,-0.94848 0.375,-1.21875 0.420668,-0.95438 0.582513,-1.37534 0.71875,-2 0.143382,-0.65767 0.269556,-1.06886 0.90625,-2.9375 0.210166,-0.61683 0.468102,-1.35988 0.5625,-1.65625 0.094,-0.29638 0.343892,-0.94615 0.5625,-1.4375 0.218704,-0.49124 0.477373,-1.09702 0.5625,-1.34375 0.139446,-0.40441 0.497419,-1.16189 0.90625,-1.96875 0.162637,-0.32102 0.527962,-1.34714 0.625,-1.75 0.119663,-0.49475 0.161702,-0.32785 0.0625,0.21875 -0.118705,0.65645 -0.279865,2.66822 -0.375,4.53125 -0.09492,1.85572 -0.177088,6.40674 -0.125,6.5 0.09007,0.16097 0.0073,1.93621 -0.28125,5.9375 -0.198387,2.7597 -0.370396,5.74845 -0.46875,8.96875 -0.08154,2.6508 -0.182245,5.39415 -0.21875,6.09375 -0.0405,0.6994 -0.04197,2.00415 -0.03125,2.90625 0.01173,0.9019 -0.0058,2.65525 -0.03125,3.90625 -0.04358,2.1247 0.0108,3.794 0.125,4 0.129172,0.2331 0.04149,5.2012 -0.125,6.9375 l -0.03125,0.25 1.21875,0.09375 c 2.175065,0.1309 2.478577,0.12505 4.25,0.15625 0.959092,0.019 1.834559,0.029 1.9375,0 0.102897,-0.028 0.214783,-0.12275 0.25,-0.21875 0.03524,-0.097 0.111992,-0.1894 0.15625,-0.1875 0.134073,0.01 0.226019,-0.6018 0.125,-0.8125 -0.05136,-0.1077 -0.183043,-0.1832 -0.28125,-0.1875 -0.195015,-0.01 -0.233363,-0.2814 -0.0625,-0.4375 0.0709,-0.065 0.0404,-0.3027 -0.0625,-0.8125 -0.08071,-0.3988 -0.135358,-0.97985 -0.15625,-1.28125 -0.07472,-1.078 -0.102989,-1.2936 -0.34375,-2.5625 -0.134233,-0.707 -0.276175,-1.724 -0.3125,-2.25 -0.03613,-0.526 -0.11403,-1.00605 -0.15625,-1.09375 -0.04221,-0.088 -0.09634,-0.5697 -0.125,-1.0625 -0.06411,-1.101 -0.178266,-2.33385 -0.21875,-2.40625 -0.106594,-0.1907 -0.293914,-2.13255 -0.3125,-3.28125 -0.03351,-2.0667 -0.12172,-3.9992 -0.1875,-4.125 -0.01385,-0.027 -0.01708,-0.436 -0.03125,-0.9375 -0.01417,-0.5014 -0.04265,-0.9641 -0.0625,-1 -0.06403,-0.1154 -0.02229,-2.8802 0.09375,-5.125 0.164403,-3.1741 0.190959,-3.3663 0.21875,-5.3125 0.01514,-1.05896 -0.03384,-1.87781 -0.09375,-2.0625 -0.07577,-0.23662 -0.07043,-0.54791 0.03125,-1.25 0.07406,-0.50495 0.161173,-1.22547 0.1875,-1.625 0.04659,-0.70124 0.09614,-1.24252 0.3125,-3.875 0.0554,-0.67373 0.186367,-3.07049 0.3125,-5.34375 0.125133,-2.27331 0.293703,-4.29799 0.34375,-4.5 0.04985,-0.20202 0.07229,-0.46578 0.0625,-0.5625 -0.05491,-0.55432 -0.117135,-0.81166 -0.21875,-0.9375 -0.09658,-0.11962 -0.170753,-0.49989 -0.125,-0.65625 0.01877,-0.0632 0.187578,-1.63929 0.1875,-1.75 0.0022,-0.05 0.01581,-0.89282 0.03125,-1.84375 0.01543,-0.95083 -0.0077,-2.01976 -0.03125,-2.40625 -0.05658,-0.92925 0.01468,-1.0625 0.5625,-1.125 0.406604,-0.0463 1.870468,0.0101 2.6875,0.09375 0.257901,0.0263 0.407203,-0.0036 0.5625,-0.15625 0.200904,-0.19774 0.180396,-0.27245 0.25,-2.40625 0.03944,-1.20312 0.07632,-2.19143 0.0625,-2.21875 -0.01381,-0.0276 -0.03394,-0.75147 -0.03125,-1.59375 0.0027,-0.84228 -0.0066,-1.58351 -0.03125,-1.65625 -0.03096,-0.0934 0.01986,-0.1323 0.1875,-0.125 0.173935,0.008 0.244369,-0.02712 0.25,-0.15625 0.0042,-0.0969 0.04143,-0.22085 0.09375,-0.25 0.0523,-0.0288 0.06464,-0.09564 0.03125,-0.15625 -0.03439,-0.0606 -0.05168,-0.18499 -0.0625,-0.28125 -0.0108,-0.0966 -0.09519,-0.30377 -0.1875,-0.46875 -0.148576,-0.26552 -0.375384,-0.41179 -0.78125,-0.4375 l 0,0.03125 c -0.05795,-0.003 -0.12125,-0.02925 -0.1875,-0.03125 z m -12.46875,10.5625 c 0.03095,0.002 0.06393,0.02115 0.0625,0.03125 -6.36e-4,0.01 -0.146714,0.29512 -0.3125,0.65625 -0.165882,0.36101 -0.306263,0.79444 -0.3125,0.9375 -0.01237,0.28363 -0.218454,0.87093 -0.53125,1.5 -0.109714,0.22063 -0.273173,0.54033 -0.34375,0.6875 -0.07048,0.14717 -0.318229,0.89679 -0.5625,1.6875 -0.469649,1.51999 -0.755437,2.36863 -0.96875,2.75 -0.07162,0.1275 -0.239987,0.53512 -0.34375,0.90625 -0.252964,0.90514 -0.585944,1.96801 -0.6875,2.1875 -0.201018,0.43455 -0.52728,1.34734 -0.71875,2.03125 -0.114909,0.40868 -0.321968,1.1244 -0.46875,1.59375 -0.353361,1.13018 -0.681511,2.25 -0.875,2.96875 -0.147395,0.5477 -0.797604,2.54068 -0.96875,2.9375 -0.04232,0.0983 -0.254114,0.7457 -0.46875,1.4375 -0.43373,1.39864 -0.888565,2.65767 -1.03125,2.96875 -0.156627,0.3416 -0.893737,2.8334 -0.96875,3.25 -0.03839,0.2147 -0.119045,0.5436 -0.1875,0.75 -0.06805,0.2063 -0.140948,0.436 -0.15625,0.5 -0.01478,0.063 -0.142756,0.395 -0.28125,0.75 -0.341585,0.8762 -0.653474,1.86255 -0.875,2.78125 -0.190366,0.7895 -0.753759,2.7061 -1.125,3.8125 -0.115957,0.3454 -0.328857,0.99905 -0.46875,1.46875 -0.315797,1.0607 -0.446798,1.41945 -0.71875,2.15625 -0.414172,1.1222 -0.330935,1.04165 -0.90625,1.09375 -0.285685,0.026 -1.662045,0.01275 -3.0625,-0.03125 -1.400454,-0.043 -2.787299,-0.08775 -3.0625,-0.09375 -0.275374,0 -1.131429,-0.0275 -1.90625,-0.0625 -0.774859,-0.034 -1.586916,-0.03725 -1.8125,-0.03125 -1.035829,0.031 -3.170584,-0.0105 -3.21875,-0.0625 -0.02962,-0.032 -1.755501,-0.1459 -3.84375,-0.25 -3.712428,-0.1859 -6.287418,-0.3579 -7.46875,-0.5 -0.323802,-0.039 -1.176428,-0.128 -1.875,-0.1875 -0.698572,-0.059 -1.651545,-0.16605 -2.125,-0.21875 -0.473555,-0.053 -3.513462,-0.20055 -6.75,-0.34375 -5.218643,-0.2275 -5.877688,-0.28085 -5.90625,-0.40625 -0.0302,-0.1339 -0.08114,-1.36195 -0.09375,-2.15625 -0.0067,-0.4192 -0.04518,-0.84495 -0.15625,-1.65625 -0.04331,-0.3152 -0.06157,-0.6516 -0.03125,-0.75 0.03033,-0.099 0.01249,-0.2201 -0.03125,-0.25 -0.04374,-0.03 -0.06946,-0.18425 -0.0625,-0.34375 0.007,-0.1597 -0.05807,-0.78595 -0.15625,-1.40625 -0.09808,-0.6203 -0.169847,-1.38395 -0.15625,-1.71875 0.03112,-0.7139 -0.105649,-2.16345 -0.25,-2.71875 -0.03942,-0.1519 -0.07785,-0.54265 -0.09375,-0.84375 -0.0159,-0.3012 -0.102128,-0.92801 -0.15625,-1.40625 -0.05423,-0.47812 -0.109338,-1.04903 -0.125,-1.25 -0.01526,-0.20096 -0.01565,-0.42988 -0.03125,-0.53125 -0.01659,-0.10152 -0.04767,-0.4557 -0.0625,-0.78125 -0.01483,-0.32566 -0.04924,-0.76788 -0.0625,-0.96875 -0.01326,-0.20097 -0.03653,-0.88015 -0.0625,-1.53125 -0.02667,-0.65108 -0.08887,-1.2222 -0.125,-1.25 -0.03583,-0.0276 -0.06596,-0.38042 -0.0625,-0.78125 0.01237,-1.36286 -0.04715,-3.08798 -0.125,-3.59375 -0.04296,-0.27733 -0.07626,-0.94841 -0.09375,-1.5 -0.01699,-0.55166 -0.0964,-1.29604 -0.1875,-1.65625 -0.0911,-0.36021 -0.175081,-0.84225 -0.1875,-1.0625 -0.02366,-0.42153 -0.142432,-1.10545 -0.4375,-2.84375 -0.09852,-0.58024 -0.187698,-1.2558 -0.1875,-1.53125 -2e-6,-0.27546 -0.02645,-0.60417 -0.0625,-0.71875 -0.03605,-0.11447 -0.0921,-0.59803 -0.125,-1.0625 -0.0328,-0.46437 -0.09271,-1.13218 -0.15625,-1.5 -0.06304,-0.36789 -0.11877,-0.69592 -0.09375,-0.71875 0.02502,-0.0229 0.335408,-0.0524 0.65625,-0.0625 0.909388,-0.0304 2.47521,-0.13624 3.15625,-0.21875 0.280439,-0.0338 1.144477,-0.07465 2.03125,-0.09375 0.959492,-0.0202 1.581906,-0.05054 2.375,-0.125 0.377209,-0.0356 0.774547,-0.08775 0.875,-0.09375 0.100341,-0.006 0.192554,-0.0043 0.21875,-0.03125 0.0262,-0.0269 0.384834,-0.11357 0.8125,-0.15625 0.786162,-0.0784 0.873925,-0.06666 1.53125,-0.15625 0.201478,-0.0272 0.432674,-0.03855 0.53125,-0.03125 0.09891,0.004 0.712444,-0.06431 1.34375,-0.15625 0.631293,-0.0917 1.305087,-0.20158 1.53125,-0.21875 0.226062,-0.0172 0.677461,-0.05401 1,-0.09375 0.322448,-0.04 0.800854,-0.08735 1.03125,-0.09375 0.230422,-0.007 0.853789,-0.0272 1.40625,-0.0625 0.552347,-0.035 1.759734,-0.0978 2.6875,-0.125 0.927683,-0.0276 1.81766,-0.0431 1.96875,-0.0625 0.15109,-0.0194 0.50477,-0.07265 0.78125,-0.09375 0.72606,-0.0544 0.94393,-0.07251 2.0625,-0.1875 0.553405,-0.057 1.180693,-0.08817 1.40625,-0.09375 0.22554,-0.005 0.673759,-0.0457 1,-0.0625 0.326242,-0.0168 0.811492,-0.01825 1.0625,-0.03125 0.251008,-0.0131 0.836562,-0.02695 1.3125,-0.03125 0.475938,-0.004 1.055275,-0.0474 1.28125,-0.0625 0.226075,-0.0152 0.761645,-0.02775 1.1875,-0.03125 0.425898,-0.004 1.142615,0.0094 1.59375,0 2.992124,-0.0593 3.582683,-0.05462 3.71875,0.09375 0.132431,0.14451 0.449362,0.14496 0.84375,0 0.184038,-0.068 0.568901,-0.14687 0.875,-0.15625 0.306111,-0.01 0.802656,-0.0254 1.09375,-0.0625 0.503028,-0.0632 1.454721,-0.0844 4.125,-0.0625 0.650785,0.005 1.410436,-0.0257 1.6875,-0.0625 0.27703,-0.036 0.767574,-0.08075 1.09375,-0.09375 0.591274,-0.0233 1.174648,-0.04045 3.59375,-0.1875 1.515953,-0.0922 2.460782,-0.12923 3.9375,-0.125 0.600975,0.002 1.230184,-0.01285 1.40625,-0.03125 0.319989,-0.0341 1.193174,-0.04335 1.40625,-0.03125 l 0,-0.03125 z m -63.5625,12.09375 0.0625,0.21875 c 0.04011,0.11306 0.08489,0.59757 0.09375,1.0625 0.01745,0.93134 0.08492,1.53565 0.25,2.4375 0.05977,0.32811 0.114811,1.03626 0.125,1.5625 0.01008,0.52634 0.06424,1.19686 0.125,1.5 0.06086,0.30313 0.177726,1.00703 0.25,1.5625 0.07188,0.55536 0.182112,1.21675 0.25,1.46875 0.101238,0.37557 0.298991,1.76968 0.40625,2.875 0.01253,0.12576 0.0524,0.51572 0.09375,0.84375 0.04175,0.32813 0.08892,1.04329 0.09375,1.59375 0.005,0.5504 0.01254,1.049 0.03125,1.125 0.06521,0.2721 0.21832,4.18455 0.1875,4.78125 -0.01461,0.3352 -0.0222,0.61545 0,0.65625 0.02223,0.041 0.07522,0.4111 0.09375,0.8125 0.01754,0.4014 0.04672,0.75285 0.0625,0.78125 0.01576,0.029 0.01751,0.3765 0.03125,0.75 0.01474,0.3737 0.04688,0.74285 0.0625,0.84375 0.01562,0.1009 0.02997,0.7551 0.03125,1.4375 l 0,1.21875 -0.21875,0.0625 c -0.123234,0.026 -0.811114,0.03525 -1.53125,0.03125 -0.720237,0 -1.759482,0.04575 -2.3125,0.09375 -0.553013,0.048 -1.310622,0.097 -1.6875,0.125 -0.716881,0.053 -3.446735,-0.0361 -3.8125,-0.125 -0.197669,-0.049 -0.201605,-0.07535 -0.125,-0.46875 0.04514,-0.2317 0.113517,-0.4892 0.15625,-0.5625 0.04323,-0.073 0.163547,-0.72275 0.28125,-1.46875 0.117603,-0.746 0.256443,-1.4011 0.28125,-1.4375 0.02459,-0.036 0.06685,-0.16955 0.09375,-0.28125 0.02689,-0.1117 0.09873,-0.5033 0.1875,-0.875 0.08828,-0.3718 0.229332,-0.9643 0.28125,-1.3125 0.05222,-0.3484 0.08558,-0.66905 0.09375,-0.71875 0.01217,-0.049 0.08823,-0.3787 0.1875,-0.75 0.09927,-0.3713 0.233798,-1.0452 0.28125,-1.5 0.04785,-0.4547 0.223728,-1.30865 0.375,-1.90625 0.151175,-0.5977 0.27247,-1.26735 0.28125,-1.46875 0.0088,-0.2014 0.07518,-0.53893 0.15625,-0.75 0.08127,-0.21106 0.243832,-0.79261 0.375,-1.3125 0.131164,-0.51978 0.33798,-1.15172 0.4375,-1.375 0.09982,-0.22326 0.34567,-1.01014 0.5625,-1.75 0.216833,-0.73991 0.427709,-1.38924 0.46875,-1.4375 0.04114,-0.0482 0.122528,-0.18875 0.15625,-0.3125 0.383397,-1.41735 0.634432,-2.2463 0.875,-2.75 0.158837,-0.33259 0.394579,-0.91942 0.5,-1.3125 0.105221,-0.39309 0.207041,-0.76755 0.25,-0.84375 0.04336,-0.0762 0.144402,-0.34033 0.21875,-0.5625 0.07474,-0.22205 0.319715,-0.77166 0.53125,-1.25 0.211535,-0.47834 0.398214,-0.98059 0.40625,-1.09375 l 0,-0.21875 z" transform="translate(0 952.362)"/><path fill="#fcd116" d="M-18.761411 964.75569c.136939.007.144598.0353.08969.10101-.05704.0686-.16167.2644-.232437.43659-.150853.36757-1.321067 2.51664-1.404283 2.57948-.03106.0237-.112599.19498-.181586.37915-.06908.18407-.165086.35655-.213101.38338-.04822.0269-.166357.19514-.263904.37546-.09795.18041-.350797.6076-.562155.94872-.281883.45495-.388488.72827-.403057 1.02111-.01639.37595-.03636.3979-.294011.41399-.150654.009-.644101.048-1.096361.0831-.452268.0353-1.027594.0716-1.278332.0808-.250834.009-.669493.0289-.929623.0446-.26023.0157-.691364.0369-.958126.0463-1.235056.0433-2.62562.0443-2.623791.002.0018-.042.404817-.91684.748147-1.62636.07147-.14712.275091-.65043.455745-1.11841.18055-.46788.371194-.93081.423304-1.02864.05232-.0979.138157-.29906.190152-.44704.05249-.14795.2586-.67167.460524-1.16374.419864-1.02319.493851-1.31744.35468-1.413-.362211-.24871.709044-.29549 3.863279-.17019 1.57504.0587 3.130296.10043 3.456582.0826.188405-.01.316763-.0152.398841-.0106zM-33.120488 964.89231c.342175.0149.474303.0447.470896.0976-.0027.0629-.260495.6761-.568842 1.36382-.308246.68773-.627873 1.40919-.710071 1.60249-.401245.94282-1.276468 2.53601-1.743159 3.17079-.166417.22636-.239382.54539-.182948.80299.03586.16462-.417665.21051-2.157983.21892-.651276.004-1.368957.0174-1.594945.0306-.225888.0132-.817631.0334-1.313712.0451l-.902958.0207.373837-.6126c1.870458-3.07845 3.066188-5.52809 3.030985-6.21068-.0098-.1882.0049-.34131.03784-.33987.03097.001.689087-.026 1.462587-.0643 2.074873-.10112 3.227898-.14314 3.798635-.12466zM-13.018324 965.78571c.139695.0261.154522 1.37584.0033 3.25263-.07679.95767-.152399 1.75073-.164936 1.76279-.01355.0124-.59616.009-1.29716-.008-1.119596-.0268-1.25914-.0449-1.137112-.15768.07611-.0697.222634-.29899.323898-.50948.10126-.21038.333742-.59292.515162-.85117.181416-.25814.389498-.62973.462769-.82492.07357-.19508.216189-.49325.316397-.66345.100508-.17018.183556-.36005.186239-.42159.0064-.14716.321521-.75571.462947-.89328.06064-.0594.144973-.23041.184379-.37893.05754-.2178.104782-.31414.144296-.30671zM-45.582665 965.31361c.394326.0172.717168.0623.715556.0993-.0019.038-.09076.19914-.197699.35843-.107044.15939-.200107.41138-.206593.56014-.0081.18692-.05672.26788-.156627.26352-.07992-.003-.170513.0747-.201039.17331-.03034.0989-.08585.17843-.124316.17675-.140767-.006-.659218 1.44626-.590065 1.65317.02566.0772.0069.16246-.04538.19151-.103305.0575-.460584.71281-.770379 1.41769-.279459.63583-.99602 1.9877-1.078878 2.03314-.03797.0214-.377862.0506-.754143.0672-.376338.0156-.828083.039-1.003976.0533-.175948.0133-.873148.028-1.549357.0295-.676209.002-1.701251.0169-2.278082.0372-1.519276.0536-1.412181.0859-1.12691-.32509.134257-.19353.247577-.39128.249646-.43874.0021-.048.131546-.33799.289981-.64758.629712-1.23094.737394-1.46007.977341-2.11714.136975-.37529.278455-.74368.31449-.81718.03624-.0735.07766-.17419.09483-.22358.193363-.53909.407201-1.05647.572731-1.38647.110609-.2205.229219-.55335.26267-.73977.04214-.23178.107703-.33522.208073-.33235.08092.004.353211-.009.604219-.0217.904034-.0477 5.092118-.0938 5.793552-.0632zM-58.817531 965.57321c.245536.0114.257312.0513.218319.14895-.03489.0886-.127021.20666-.205002.26422-.139416.10293-.319143.51979-1.149026 2.66178-.228958.59099-.516734 1.25459-.639131 1.47456-.427409.76922-1.261184 2.17854-1.345555 2.27476-.04635.053-.06394.22683-.03982.38533.04299.27673.03247.28848-.262715.28162-.16874-.007-.409796.00015-.535374.0107-.125778.0105-.636693.0273-1.134259.0386-.497566.0113-.927889.0346-.958388.0523-.03076.0167-.405187.0414-.830348.0519-.829697.0209-2.584716.16217-3.332505.2673-.251966.0351-.595617.0838-.761671.10903l-.300831.0469.446353-.77439c.245184-.42593.423748-.81152.398773-.85625-.02506-.0451-.0065-.0804.04844-.078.08692.004.17119-.14068.6858-1.17665.103171-.2083.34058-.7819.52512-1.27473.184537-.49273.370279-.9764.413897-1.0746.04332-.0983.182752-.46097.308404-.80613.125649-.34505.287177-.73249.359033-.86078.145871-.26019.20522-.74677.127241-1.03594-.04484-.16541-.01396-.18498.2231-.15813.149721.0165.592834.01.985279-.0171.392646-.0269 1.737015-.0245 2.987716.005 1.250702.0295 2.671871.0474 3.159728.0407.206227-.003.366311-.006.486771-.005.04496.002.08392.004.119287.005zM-73.901663 965.82615c.205141-.001.236291.0283.177764.0988-.05283.0638-.158086.297-.23603.51901-.07774.22193-.246026.60136-.372574.84308-.126452.24182-.231786.48826-.234369.54751-.0129.29361-1.085821 2.26585-1.707611 3.1383-.253633.35569-.46142.66083-.462148.67982-.000927.019-.220276.30459-.485846.63334-.265471.32874-.557855.69165-.649821.80826-.09217.1166-.17344.32545-.1825.46439-.0061.13907-.1003.39501-.204066.56875-.170416.28595-.227188.31621-.599779.31248-.226521.00013-.453641.00024-.503942.006-.156885.0192-1.343893.09-2.738745.15947-.351405.0177-1.214549.0803-1.918369.14117-.703799.0604-1.560649.12555-1.904305.1446-.624011.0349-.625709.0348-.553005-.17495.04007-.11547.173823-.36868.297777-.56467.123954-.19599.505108-.93739.84587-1.64772.340762-.71033.725922-1.50231.856394-1.75827.130368-.25586.268848-.56693.306145-.69232.0375-.12539.102972-.24965.148627-.27519.04513-.0251.08668-.10562.08985-.17825.0032-.0729.101107-.32171.217633-.55395.413299-.82668.486875-.98523.489388-1.04288.0014-.032.111653-.16409.246228-.29375.77821-.75012.998608-1.35139.610712-1.67219-.192451-.15913-.298097-.14432 1.010475-.13812.300438.001 1.201925.00035 2.003334-.00074.801408-.001 1.846277-.00059 2.321954.001.865217.005 1.848616-.0175 2.865583-.0657.109732-.005.196554-.008.26502-.008zM-88.045612 965.92085l-.384605.46699c-.211352.25604-.4763.64397-.586813.86226-.110513.21829-.459947.69132-.780005 1.05303-1.029965 1.16374-1.985022 2.62513-2.805193 4.29409-.242964.49439-.821683 1.45569-1.089098 1.81068-.0956.12636-.229669.35934-.30159.51896-.07202.15961-.178001.29002-.234491.28856-.05599-.001-.369749.0229-.696744.0547-.326895.0318-.800127.0773-1.051423.0993-.251499.0221-.492607.0606-.535899.0847-.09231.051-3.847187-.0473-3.896857-.10182-.0182-.0198-.20459-.053-.41502-.0752-.21038-.0212-.38183-.0537-.38109-.0707.00074-.017.0882-.11707.19466-.22203.10667-.10495.2236-.29374.26007-.41837.0365-.12453.17038-.37714.29775-.56176.12736-.18473.27513-.42412.32769-.53214.10882-.22327.172492-.31758.768658-1.11888.236784-.31819.753345-1.01555 1.148861-1.54913.395619-.53367.756323-.98049.800309-.99529.0437-.0151.0831-.0694.08537-.12149.0023-.052.149483-.27645.329218-.50064.67219-.83922 1.336399-1.803 1.470311-2.13559.07631-.18905.12805-.48738.113893-.66086-.02452-.31006-.0193-.31504.36242-.34845.213319-.0187.777116-.0202 1.252096-.002.474849.0207 1.171277.026 1.547354.0164.375976-.01 1.073014-.0183 1.548865-.0206.475851-.002 1.112592-.0376 1.414703-.0749.302136-.0379.703898-.0604.892919-.0522l.343673.015zM-103.72228 965.60164l.21579.009c.17094.007.79478.15557 1.36356.31549.0375.0116.35375.0294.70372.0447.35596.0155.63441.0687.63223.11865-.002.049-.20012.27615-.44029.5044-.46855.44552-1.52681 1.86347-1.82542 2.44732-.10064.196-.28529.49615-.41026.66506l-.22684.30601.0157-.36075c.029-.66517.0248-2.0832.00026-3.07321l-.0253-.98003zM-19.182368 973.04067c.04795.002.07992.003.08448.0137.02297.024-.09997.24959-.269353.50045-.206584.30509-.33591.63116-.392828.98162-.06572.40542-.168436.62395-.44933.97355-.311377.38761-.697322 1.16083-.810565 1.62083-.01825.0743-.09446.39877-.16797.72117-.07411.32228-.311491 1.09047-.529749 1.70695-.218263.61658-.457375 1.30271-.530323 1.52495-.07275.22214-.208794.54402-.301544.71534-.09255.17124-.321596.77583-.508105 1.34365-.186608.56781-.378001 1.07776-.424971 1.13116-.09687.10979-.993892 2.17077-.999328 2.29545-.0037.0839-.154771.40234-.563964 1.18767-.130103.24977-.238701.51599-.242046.59272-.0034.0769-.07316.25455-.153832.39457-.08117.1399-.151412.3138-.156377.38866-.0063.14356-.387113 1.29597-.941924 2.8729-.182228.51785-.427033 1.33917-.54332 1.82307-.116182.48379-.308965 1.11059-.427769 1.39279-.31652.75122-.661479 1.83563-.8773 2.75895-.104537.44627-.350754 1.26783-.546244 1.82584-.19539.55804-.388362 1.20524-.429751 1.43834-.164628.9269-1.143558 3.9919-1.654424 5.1808-.08464.1966-.256106.6604-.38065 1.0306-.124539.3701-.353777 1.0158-.512168 1.4346-.158392.4188-.373354 1.0446-.476124 1.3907-.103174.3461-.341081 1.0528-.529403 1.5704-.188427.5177-.379325 1.1035-.423906 1.3019-.04469.1984-.105591.4015-.136203.4494-.03111.048-.06654.1487-.07784.2242-.03712.2315-.468487 1.7596-.700054 2.4793-.277991.8639-.460556 1.2541-.758817 1.6117-.156518.1876-.274394.4829-.344946.8614-.05883.3162-.179264.8356-.266563 1.1551-.087.3194-.195962.803-.240517 1.0765-.125782.7729-.371205 1.8609-.730238 3.2406-.121653.467-.230905 1.1178-.245226 1.4463-.02417.5544-.259364 1.6925-.38942 1.8838-.03102.046-.132705.771-.223936 1.6123-.09173.8413-.202693 1.6692-.245225 1.8389-.08965.3573-.117342.368-.659476.2445-.2232-.051-.954144-.2035-1.624304-.3384-1.620035-.3261-2.228841-.4861-2.357355-.6264-.08122-.089-.08097-.1173.005-.1136.05994 0 .114149-.072.118348-.1684.0042-.096.03916-.1864.07685-.2015.0937-.037.451716-.801.68387-1.4584.104988-.2959.222565-.5982.259799-.6716.384592-.7583 1.050186-2.3072 1.209786-2.8157.07783-.2469.260788-.6897.407141-.9839.146349-.2941.411147-.961.591026-1.4824.179978-.5213.424389-1.2073.541707-1.5243.117323-.3171.355119-1.0419.528344-1.6104.173221-.5684.450727-1.4373.616286-1.9309.165554-.4936.420808-1.302.56778-1.7964.146976-.4945.435459-1.4039.64013-2.0209.401625-1.211 1.215445-3.7606 1.548898-4.8497.113254-.3707.33225-1.1602.486279-1.7545.308093-1.1893.434102-1.5747 1.00298-3.0978.211684-.5667.467661-1.3849.568674-1.8192.232885-1.0002.477468-1.8164.94809-3.14291.2053-.57871.398102-1.14395.427518-1.25617.02892-.11225.201789-.64968.382113-1.19274.180324-.54306.494866-1.49227.698042-2.1095.203173-.61714.451064-1.34393.554164-1.6149.190497-.50088.79395-2.38998.945883-2.96371.274124-1.03464 1.215592-3.97743 1.515473-4.73729.140883-.357.237131-.64989.213353-.65093-.02398-.001.0033-.0749.05226-.16558.0994-.16773.181264-.44522.29127-1.00316.0346-.17376.122112-.45682.195376-.62889.248908-.58481.485309-1.11462.630715-1.41237.07919-.1634.122518-.32147.0954-.35158-.02771-.0302-.0053-.10823.05863-.17381.05991-.0654.08733-.14333.06151-.17098-.02484-.0271.02143-.23899.102598-.47068.08217-.23164.31751-.96909.523759-1.63614.206354-.66714.408741-1.25249.449382-1.30076.119287-.14174.706478-1.63028.662238-1.67855-.13224-.1443.50436-1.66181.778059-1.85557.03306-.0236.08043-.1.107579-.17168.0295-.0798.187396-.13356.407206-.13589.484373-.005 1.370137-.0491 2.398313-.12026.351866-.0237.664815-.0341.809378-.0278z"/><path fill="#e5b731" d="M-17.345021 973.84646c.04696.002.06645.083.06677.23623.004.13791.01131.86552.02658 1.6174.01526.75197-.0032 2.02558-.04128 2.82958-.03506.80414-.02987 1.60342.01664 1.77641.180718.67852.189079 1.0148.0464 1.74358-.0914.46646-.199171 1.85929-.286568 3.70093-.163907 3.46115-.348325 6.03816-.47306 6.67223-.101622.51716-.234466 4.04643-.253255 6.7274-.01048 1.50308-.138155 4.61528-.287102 7.04458-.0528.8667-.05423 3.9209-.0018 4.8716.02816.502.06156 1.1181.07404 1.369.01308.251.06065 1.0931.106291 1.8714.115301 1.9678.115242 1.9531.134457 2.9198.02377 1.1997.05086 1.5012.281052 3.0172.111065.731.232605 1.6993.270437 2.1517.03833.4524.130629 1.2144.205032 1.6935.07421.479.197517 1.3654.27267 1.9698.07525.6042.23247 1.5944.350882 2.2005.118308.6063.230391 1.3576.248829 1.6671.01854.3095.100803.8539.183396 1.2117.207775.9005.202294.9298-.202065.9132-.187435-.01-.587755.011-.889761.046-.692724.08-1.574322.079-2.71738 0l-.896415-.065.103499-.7439c.12275-.887.12343-.9026.12967-3.5712.0023-1.1554-.02484-2.1509-.05994-2.2138-.100666-.1797-.102461-2.8868-.0075-6.1609.04794-1.6507.118668-4.3521.159216-6.0031.224964-9.2331.266171-10.3619.53717-14.2728.07274-1.04853.155591-2.58163.182559-3.40683.117648-3.61691.151813-4.63019.231015-6.74534.05448-1.47923.05174-2.2659-.01027-2.30824-.05151-.0353-.06459-.17148-.02984-.30289.187502-.71.361911-3.42248.229579-3.56698-.09919-.10813.00079-.72986.105778-.65842.04374.0299.05303.0924.02203.13759-.03102.0457-.01756.0813.0274.0833.106699.005.319722-.61115.335363-.96991.0067-.15416-.04034-.31456-.106731-.35749-.06619-.0429-.13797-.13914-.158603-.21461-.02679-.0973-.138535-.13536-.384322-.12496-.336245.0144-.344475.008-.285515-.24006.03316-.14069.15444-.49805.267924-.79369.245239-.63842.522233-1.54832.641292-2.11187.0945-.44571.163536-.58043.701448-1.33812.269386-.37952.384735-.64675.440044-1.0223.04852-.3323.170268-.643.349481-.90113.17814-.25649.283686-.37921.34365-.37479zM-84.91897 976.57454l.01109.27364c.0065.15053.06222.50129.119672.77926.05795.27798.114766.80686.12804 1.17509.01297.36831.04048.70163.06184.73969.02137.038.05381.18923.07043.33609.01663.14666.05239.45131.07855.67776.02616.22656.05444.49625.06204.59747.02222.29385.244842 1.69187.357414 2.2437.05695.27794.167111.99983.24596 1.60424.07875.6044.190588 1.2649.249004 1.46783.05822.20283.117257.71759.132201 1.14395.01544.42637.07286 1.16648.127589 1.64462.14431 1.26108.144687 1.2708.185437 2.72846.02106.73372.06298 1.72378.09193 2.20089.02925.47703.09914 1.70939.156569 2.73857.05752 1.02928.133242 2.07748.1688 2.32947.03506.25187.124181 1.07543.196293 1.82973.07211.7544.177422 1.5921.234715 1.8599.05739.2678.128303 1.0083.155962 1.6459.05952 1.3714.100272 1.7523.381766 3.4484.230835 1.3909.243669 1.4777.394074 2.84.05514.5032.131574 1.0803.168915 1.2822.03724.202.0615.5179.05458.6995-.01162.2666-.05181.3389-.218425.3747-.248554.053-3.597253-.1208-3.688045-.1918-.03483-.028-.03727-.89-.0046-1.9153.03269-1.0252.04862-1.9875.03617-2.1383-.0203-.2462-.04245-1.6162-.0499-3.0982-.0033-.6141-.100253-3.4954-.197983-5.8364-.03588-.85301-.127038-2.04533-.200392-2.64949-.07375-.60429-.144644-1.30394-.159822-1.55504-.0292-.47823-.263115-1.42426-.459474-1.86113-.145446-.32354-.225173-.85502-.127965-.85078.08892.004.009-.96322-.110313-1.32226-.04688-.14158-.09844-.79554-.115901-1.45353-.01736-.65798-.114522-1.69179-.215646-2.29727-.101129-.60538-.176425-1.32574-.166436-1.60077.0128-.29362-.03299-.57488-.106801-.6819-.06871-.10009-.121883-.27397-.116983-.38636.0049-.11249-.02409-.22797-.0659-.25621-.0797-.0545-.364729-1.03357-.356266-1.22769.0027-.0629-.02889-.11797-.07185-.11984-.104301-.005.000504-.4478.184856-.78019.08256-.14884.184117-.46932.224568-.71299.04065-.24356.230238-.83617.421749-1.31899.191611-.48281.354969-.98797.361935-1.1225.0059-.13457.126568-.48785.267527-.78229.140854-.29434.284162-.69778.317958-.8967.05539-.3291.142604-.51358.627396-1.33854l.156748-.26633z"/><path fill="#fcd116" d="m -87.22939,976.70143 c 0.115491,0.005 0.07838,0.22263 -0.09109,0.52823 -0.08477,0.15356 -0.172042,0.37146 -0.191758,0.48391 -0.05855,0.33277 -0.191058,0.72727 -0.330017,0.97585 -0.07164,0.1279 -0.179908,0.47842 -0.241603,0.77772 -0.06209,0.29928 -0.200061,0.71797 -0.305257,0.93139 -0.34689,0.70396 -0.421354,0.91962 -0.483997,1.37612 -0.04091,0.2956 -0.233182,0.75907 -0.553566,1.34176 -0.619452,1.12649 -0.763712,1.49896 -0.877197,2.23542 -0.04183,0.27063 -0.461461,1.3689 -0.639333,1.67664 -0.07579,0.13133 -0.131587,0.27233 -0.124663,0.31327 0.0082,0.0414 -0.06731,0.23529 -0.163931,0.43107 -0.09761,0.19563 -0.190832,0.4374 -0.208397,0.53723 -0.04927,0.28072 -0.280326,1.0598 -0.37357,1.25853 -0.231297,0.49309 -0.817597,2.16324 -0.896786,2.55616 -0.05991,0.29507 -0.291098,1.05893 -0.638395,2.112 -0.08183,0.24687 -0.242482,0.77262 -0.361121,1.16813 -0.118634,0.39541 -0.257951,0.79912 -0.309466,0.89707 -0.262672,0.49874 -0.710277,2.13069 -1.035491,3.77927 -0.186179,0.9437 -0.34546,1.6469 -0.508074,2.2544 -0.05267,0.198 -0.132123,0.6658 -0.176239,1.0394 -0.07147,0.6064 -0.438362,2.6299 -0.794303,4.3818 -0.07021,0.3475 -0.193597,0.8543 -0.273918,1.1263 -0.156919,0.5321 -0.231971,0.9081 -0.349908,1.7604 -0.04105,0.2988 -0.222035,1.144 -0.400562,1.8777 -0.178531,0.7338 -0.333219,1.5728 -0.345872,1.8631 -0.01266,0.2903 -0.123859,0.8665 -0.246536,1.2811 -0.122577,0.4147 -0.272535,1.0786 -0.331831,1.4767 -0.05939,0.3981 -0.130283,0.7843 -0.159724,0.8581 -0.06748,0.1703 -0.196896,0.8382 -0.256265,1.3091 -0.0247,0.1993 -0.09592,0.5241 -0.156681,0.7217 -0.06067,0.1977 -0.141126,0.645 -0.177059,0.9939 -0.03624,0.3491 -0.100163,0.9199 -0.143389,1.2686 -0.04323,0.3487 -0.115148,0.9192 -0.157679,1.268 -0.04223,0.3487 -0.163199,1.1765 -0.267904,1.8379 -0.104914,0.6616 -0.169508,1.2363 -0.14676,1.277 0.02224,0.041 -0.08447,0.5142 -0.236628,1.0539 -0.15226,0.5398 -0.34551,1.2944 -0.42887,1.6773 -0.16513,0.7593 -0.47315,1.7726 -0.58135,1.9125 -0.0371,0.048 -0.0978,0.1995 -0.13694,0.3356 -0.0614,0.2149 -0.11682,0.2481 -0.41154,0.2353 -0.18643,-0.01 -0.48288,0.019 -0.65991,0.059 -0.17707,0.041 -0.50664,0.082 -0.73233,0.091 -0.22582,0.01 -0.47303,0.038 -0.54935,0.067 -0.0763,0.029 -0.28244,0.057 -0.45794,0.062 -0.1756,0.01 -0.34076,0.035 -0.36713,0.066 -0.0264,0.031 -0.61899,0.062 -1.3148,0.068 l -1.26393,0.01 0.074,-0.25 c 0.041,-0.138 0.2514,-0.6466 0.46753,-1.1293 0.21602,-0.4825 0.4955,-1.1716 0.6187,-1.5295 0.12331,-0.3578 0.37127,-0.9923 0.55094,-1.4101 0.44966,-1.0454 0.5661,-1.3676 0.57598,-1.594 0.005,-0.1071 0.25396,-1.0338 0.55372,-2.0618 0.29976,-1.028 0.56368,-1.9479 0.58705,-2.0432 0.10089,-0.4084 0.40964,-1.4956 0.59143,-2.0771 0.10817,-0.3458 0.25531,-0.9335 0.3273,-1.3061 0.0723,-0.3725 0.21892,-0.9806 0.32638,-1.3516 0.10726,-0.3709 0.25697,-1.02 0.33324,-1.4424 0.0765,-0.4223 0.20843,-0.9903 0.29115,-1.2622 0.0829,-0.2718 0.27846,-1.0008 0.43488,-1.6201 0.15652,-0.6192 0.35723,-1.4095 0.44651,-1.7561 0.30634,-1.1904 0.36406,-1.4422 0.44305,-1.9385 0.044,-0.2735 0.12095,-0.639 0.17203,-0.812 0.0516,-0.173 0.15568,-0.7422 0.23151,-1.2647 0.145366,-1.0017 0.229146,-1.4356 0.300491,-1.5407 0.02355,-0.035 0.07252,-0.2399 0.107974,-0.4562 0.03546,-0.2164 0.116059,-0.6188 0.175401,-0.8917 0.05994,-0.2728 0.251253,-1.3503 0.425994,-2.3944 0.174745,-1.0442 0.359693,-2.0399 0.412281,-2.21306 0.05258,-0.17298 0.158562,-0.76252 0.236384,-1.31005 0.145102,-1.02086 0.460693,-2.40283 0.566229,-2.4794 0.07337,-0.0529 0.302092,-1.31799 0.423897,-2.34632 0.05045,-0.4224 0.201558,-1.07143 0.336035,-1.44223 0.134482,-0.37089 0.305606,-1.09322 0.380188,-1.60546 0.127244,-0.87529 0.27624,-1.40921 0.610966,-2.20148 0.0781,-0.18437 0.11666,-0.33634 0.08579,-0.33768 -0.03097,-10e-4 -0.01176,-0.0516 0.04192,-0.11198 0.176848,-0.19699 0.41468,-1.08107 0.50933,-1.89292 0.05111,-0.43769 0.200683,-1.09269 0.333862,-1.45664 0.133278,-0.36394 0.277388,-0.8294 0.321006,-1.0332 0.04392,-0.20378 0.237675,-0.65777 0.431155,-1.01128 0.345418,-0.63115 0.551036,-1.28141 0.973514,-3.07632 0.26816,-1.1389 0.398664,-1.48054 0.836446,-2.21447 0.05075,-0.0849 0.09544,-0.23766 0.0999,-0.33997 0.0045,-0.1022 0.05976,-0.19978 0.123248,-0.21653 0.06277,-0.0163 0.763391,-0.0268 1.557588,-0.0232 0.794197,0.004 1.899714,-0.0347 2.456467,-0.0835 0.556854,-0.0488 1.047334,-0.0882 1.087996,-0.0864 z"/><path fill="#3b3c3d" d="m -20.033708,985.71492 c 0.01,4.3e-4 0.01355,0.0106 0.02111,0.044 0.0191,0.0899 0.01278,0.21206 -0.01189,0.27264 -0.02768,0.0608 -0.04344,-0.0139 -0.0359,-0.16372 0.0041,-0.0939 0.0174,-0.14658 0.02966,-0.15235 z"/><path fill="#fcd116" d="M-69.918968 1015.1974c.08196 0 .186623.01.323213.025.310464.031.951529.094 1.425289.1392 1.121563.108 2.211655.249 2.252429.2918.0172.019-.09611.1841-.252244.3675-.156331.1833-.488724.6098-.738558.9495-.24993.3397-.581347.7759-.736628.9696-.155276.1935-.285776.3927-.289553.4426-.0024.054-.366562.076-.893149.055-.487437-.021-1.470604-.025-2.1848-.013-.714296.012-1.297043-.014-1.29517-.056.0018-.041.05992-.1345.131592-.2105.07138-.076.321894-.4589.554924-.8494.232931-.3905.571512-.9085.750145-1.151.178738-.2427.411418-.5655.517935-.7174.140682-.2008.188548-.2541.434714-.2457zM-77.977934 1014.874c.129512 0 .229573.01.267047.012.07449.013.861671.052 1.748667.096.886821.049 1.612004.099 1.611046.1213-.0017.037-.384976.5926-.941755 1.3675-.124034.1725-.226129.3562-.228402.4083-.0023.052-.0943.1886-.203939.3041-.644446.6804-.755775.8233-.761982.9657-.0038.087-.05861.1735-.122259.1938-.06394.02-.770205.015-1.570294-.011-.800275-.025-1.772916-.038-2.161511-.026-.388695.012-.705476-.01-.703821-.045.0017-.038.103516-.1933.225554-.343.122232-.1496.49927-.7208.837893-1.2696.338523-.5488.664029-1.0262.723503-1.0611.180481-.1058.352507-.4447.302037-.5958-.0399-.1181.04925-.1426.529416-.1335.158849.01.319297.014.449109.01zM-85.603644 1014.6669c.271941.012.630701.027 1.107312.058 1.07006.059 1.974101.1371 2.007188.1726.05064.055-.570539 1.0927-.733587 1.2258-.02906.024-.13818.1939-.241226.3764-.10305.1826-.374378.5309-.602978.7762-.241629.2594-.418994.5394-.42457.6673-.0063.1444-.06465.2202-.169075.2231-.08835.01-.508025.01-.933836.01-1.980679.014-3.277533-.013-3.275246-.066.0024-.055 1.032619-1.2751 1.152103-1.364.114316-.085.942968-1.1934 1.100044-1.4718.0879-.1563.164002-.3683.168462-.4707.006-.1367.02952-.1721.845357-.1367zM-90.360312 1014.7069c.111056.01.181249.019.180377.039-.0018.041-.228241.3013-.503275.5786-.275034.2771-.736337.7539-1.02524 1.0622-.288898.3082-.730452.759-.979854 1.0016-.361248.3514-.445172.4902-.419593.6818l.03256.2404-.840865.031c-1.311402.049-2.172352.037-2.138385-.033.03515-.072.789316-1.1426 1.413563-2.0071.22648-.3137.414753-.6373.418303-.7188.0036-.082.147116-.3209.31907-.5296l.312406-.379 1.0911.038c.59983.026 1.3684.021 1.707435 0 .169567-.012.321628-.012.432879-.01zM-40.369625 1017.0086c.125302.016.08746.1291-.121269.302-.109338.09-.305454.3252-.43254.5218-.206729.3199-.64894.6734-1.370669 1.09-.13459.077-.27427.2459-.312262.3733-.04102.1373-.154953.2482-.276528.2724-.39107.078-4.053104-.084-3.993306-.174.06333-.098.485467-.6247.668019-.833.06425-.073.339052-.391.611271-.7047.272224-.3138.523176-.5897.558832-.6131.03606-.024.09502-.1132.131-.1992.07601-.1824.464743-.1837 3.125598-.026.553838.034 1.117162.037 1.251673.01.0364-.01.06968-.014.09778-.016.02398.0009.04496 0 .06194 0zM-61.783366 1016.1091l1.907367.1112c1.049106.062 1.91879.1247 1.934577.1414.04213.044-.233807.4267-.951166 1.3217-.3491.4355-.682409.8922-.741402 1.0146-.103459.2149-.141406.2221-1.056231.2073-.522115-.01-.973875-.042-1.001416-.07-.02771-.03-.564965-.08-1.195948-.1122-1.04597-.056-1.303133-.1148-1.05023-.2564.05026-.028.233675-.2583.409266-.5114.17559-.2531.375909-.5408.443309-.638.0673-.097.211179-.3003.318522-.4528.107347-.1525.371855-.3857.588814-.5178l.394581-.2389zM-53.193339 1016.5207l.925756.1083c.510059.06 1.266033.1233 1.678572.1382.412408.018.749352.043.748655.059-.0097.2218-1.337173 1.9585-1.692841 2.2141-.127408.091-.233986.2105-.236395.2656-.0027.063-.22045.091-.580908.075-.316999-.014-1.203821-.023-1.971074-.023-1.050065-.0007-1.376975-.026-1.32438-.1027.03849-.056.125489-.1027.195023-.1.06893 0 .248061-.143.395399-.3243.269928-.3323.996089-1.1697 1.084589-1.2504.02606-.024.210533-.2717.411094-.5511l.366458-.5076z"/><path fill="#3b3c3d" d="m -91.396213,1015.4926 c -0.04995,0 -0.0927,0.037 -0.09488,0.087 -0.0022,0.05 0.037,0.093 0.08695,0.095 0.04995,0 0.0927,-0.037 0.09488,-0.087 0.0022,-0.05 -0.037,-0.093 -0.08695,-0.095 z"/><path fill="#e5b731" d="m -81.644256,1019.8617 c 0.735701,0.032 1.253706,0.078 1.253317,0.1026 -5.82e-4,0.034 0.07784,0.6574 0.172824,1.3877 0.09508,0.7303 0.185268,1.4719 0.201319,1.6478 0.01635,0.176 0.04993,0.3931 0.07311,0.4813 0.02318,0.088 0.05512,0.2739 0.07308,0.4129 0.01797,0.139 0.100752,0.6646 0.182459,1.169 0.08161,0.5043 0.170936,1.082 0.200085,1.2835 0.145383,1.0046 0.459259,2.7776 0.527301,2.9824 0.04249,0.1275 0.104646,0.3962 0.138989,0.5979 0.03424,0.2019 0.102597,0.5327 0.150128,0.7351 0.04723,0.2024 0.09637,0.4504 0.109696,0.5512 0.07873,0.5979 0.113321,0.7918 0.178771,0.9895 0.110039,0.3321 -0.02937,0.4441 -0.569104,0.4561 -0.770491,0.017 -1.246939,0.077 -2.18581,0.2717 -0.480193,0.1 -0.918532,0.1782 -0.975217,0.1766 -0.13677,-0.01 -0.200969,-0.2783 -0.259164,-1.1039 -0.02661,-0.3769 -0.09528,-1.0149 -0.15168,-1.4181 -0.05649,-0.4031 -0.114044,-0.9612 -0.127989,-1.2405 -0.0587,-1.1745 -0.490557,-3.3913 -1.01841,-5.2292 -0.123841,-0.4311 -0.288278,-1.2649 -0.365887,-1.8542 -0.07771,-0.5892 -0.195664,-1.3114 -0.263044,-1.6049 -0.06728,-0.2936 -0.137545,-0.6173 -0.156463,-0.7183 -0.03323,-0.179 0.01785,-0.1798 2.016534,-0.1084 0.282032,0.012 0.550078,0.024 0.795245,0.035 z"/><path fill="#e5b731" d="m -19.540138,30.267907 -0.441942,-2.335978 2.020305,-1.704632 0.0947,3.440832 z" transform="translate(0 952.362)"/></g></svg>